<svg width="31" height="26" viewBox="0 0 31 26" fill="none" xmlns="http://www.w3.org/2000/svg">
<path d="M5.0838 14.6717V18.6525C5.0838 19.6867 5.65047 20.65 6.55714 21.1458L13.6405 25.0133C14.4905 25.4808 15.5105 25.4808 16.3605 25.0133L23.4438 21.1458C24.3505 20.65 24.9171 19.6867 24.9171 18.6525V14.6717L16.3605 19.3467C15.5105 19.8142 14.4905 19.8142 13.6405 19.3467L5.0838 14.6717ZM13.6405 0.986668L1.69797 7.50333C0.720469 8.04167 0.720469 9.45833 1.69797 9.99667L13.6405 16.5133C14.4905 16.9808 15.5105 16.9808 16.3605 16.5133L27.7505 10.2942V18.6667C27.7505 19.4458 28.388 20.0833 29.1671 20.0833C29.9463 20.0833 30.5838 19.4458 30.5838 18.6667V9.58584C30.5838 9.06167 30.3005 8.59417 29.8471 8.33917L16.3605 0.986668C15.9419 0.763436 15.4748 0.646667 15.0005 0.646667C14.5261 0.646667 14.059 0.763436 13.6405 0.986668Z" fill="url(#paint0_linear_782_1707)"/>
<defs>
<linearGradient id="paint0_linear_782_1707" x1="11.4069" y1="4.31206" x2="13.9417" y2="25.4981" gradientUnits="userSpaceOnUse">
<stop stop-color="#447EF7"/>
<stop offset="1" stop-color="#243DBC"/>
</linearGradient>
</defs>
</svg>
